# xmcd CD database file
#
# Track frame offsets:
#	150
#	17576
#	31996
#	47023
#	60842
#	71321
#	88257
#	103346
#	114744
#	126648
#
# Disc length: 1892 seconds
#
# Revision: 0
# Processed by: cddbd v1.5.1PL0 Copyright (c) Steve Scherf et al.
# Submitted via: CDex 1.51
#
DISCID=8607620a
DTITLE=Keith Burden - Higher Ground
DYEAR=2004
DGENRE=Country
TTITLE0=Higher Ground
TTITLE1=Take The Love Of God and Pass It On
TTITLE2=I've Got To Turn My Eyes To Heaven
TTITLE3=Find Him Where You Will
TTITLE4=When I Start Believing Again
TTITLE5=God Believes In Me
TTITLE6=Pull Back The Curtain
TTITLE7=There Is A God Beyond
TTITLE8=The Grand Reunion
TTITLE9=The Great Unknown
EXTD=YEAR: 2004
EXTT0=
EXTT1=
EXTT2=
EXTT3=
EXTT4=
EXTT5=
EXTT6=
EXTT7=
EXTT8=
EXTT9=
PLAYORDER=
